<?xml version="1.0" encoding="UTF-8" standalone="no"?>
<svg
   xmlns="http://www.w3.org/2000/svg"
   width="128"
   height="157"
   viewBox="0 -140 128 157"
   version="1.1"
   id="svg3743">
  <path
     id="freedom"
     data-name="freedom"
     d="M 113.43819,-140.75501 H 14.542094 A 14.404067,14.404067 0 0 0 0,-126.51855 v 101.114376 a 13.220981,13.220981 0 0 0 8.5675112,12.343528 L 80.65686,14.919323 a 13.566048,13.566048 0 0 0 5.008396,0.985908 H 113.45791 A 14.394208,14.394208 0 0 0 128,1.6786268 V -126.48898 a 14.404067,14.404067 0 0 0 -14.56181,-14.26603 z M 13.270277,-21.460558 23.277209,-31.802698 a 4.9295232,4.9295232 0 0 1 6.901332,-0.17748 L 62.210584,-2.4819132 Z M 118.28884,1.5997548 a 4.8013556,4.8013556 0 0 1 -4.85065,4.7422 H 85.901872 L 36.80382,-38.88149 a 14.78857,14.78857 0 0 0 -20.56597,0.552108 l -6.5661256,6.78302 v -95.011628 a 4.8013556,4.8013556 0 0 1 4.8506516,-4.7422 h 98.915814 a 4.8013556,4.8013556 0 0 1 4.85065,4.7422 V 1.6096148 Z"
     style="fill:#000000;stroke-width:9.85904598" />
</svg>
